<svg width="50" height="48" viewBox="0 0 50 48" fill="none" xmlns="http://www.w3.org/2000/svg">
<path d="M23.7837 47.1167C23.2031 46.5361 22.8991 45.7972 22.8717 44.9C22.8442 44.0028 23.1218 43.2639 23.7045 42.6833L39.2212 27.1667H3.83367C2.93645 27.1667 2.18384 26.8627 1.57584 26.2547C0.967837 25.6467 0.664892 24.8951 0.667003 24C0.667003 23.1028 0.971003 22.3502 1.579 21.7422C2.187 21.1342 2.93856 20.8312 3.83367 20.8333H39.2212L23.7045 5.31668C23.1239 4.73612 22.8463 3.99723 22.8717 3.10001C22.897 2.20279 23.201 1.4639 23.7837 0.883344C24.3642 0.302789 25.1031 0.0125122 26.0003 0.0125122C26.8976 0.0125122 27.6364 0.302789 28.217 0.883344L49.117 21.7833C49.4337 22.0472 49.6585 22.3776 49.7915 22.7745C49.9245 23.1714 49.99 23.5799 49.9878 24C49.9878 24.4222 49.9224 24.8181 49.7915 25.1875C49.6606 25.557 49.4358 25.9 49.117 26.2167L28.217 47.1167C27.6364 47.6972 26.8976 47.9875 26.0003 47.9875C25.1031 47.9875 24.3642 47.6972 23.7837 47.1167Z" fill="white"/>
</svg>
